<?xml version="1.0" standalone="no"?>
<!DOCTYPE svg PUBLIC "-//W3C//DTD SVG 20010904//EN"
 "http://www.w3.org/TR/2001/REC-SVG-20010904/DTD/svg10.dtd">
<svg version="1.0" xmlns="http://www.w3.org/2000/svg"
 width="600.000000pt" height="600.000000pt" viewBox="0 0 600.000000 600.000000"
 preserveAspectRatio="xMidYMid meet">
<metadata>
Created by potrace 1.14, written by Peter Selinger 2001-2017
</metadata>
<g transform="translate(0.000000,600.000000) scale(0.100000,-0.100000)"
fill="#000000" stroke="none">
<path d="M1127 3993 c-4 -3 -7 -458 -7 -1010 l0 -1003 508 0 c307 0 543 4 597
11 296 36 561 172 718 368 143 181 207 374 207 631 0 241 -55 421 -181 592
-171 231 -452 376 -790 407 -123 12 -1041 15 -1052 4z m1140 -416 c272 -91
425 -325 410 -627 -4 -63 -14 -131 -26 -170 -46 -148 -159 -279 -294 -344
-125 -61 -171 -67 -484 -73 l-283 -5 0 627 0 627 298 -4 c292 -4 298 -4 379
-31z"/>
<path d="M3507 3993 c-4 -3 -7 -458 -7 -1010 l0 -1003 235 0 235 0 0 365 0
365 465 0 465 0 0 190 0 190 -465 0 -465 0 0 265 0 265 530 0 530 0 0 190 0
190 -758 0 c-417 0 -762 -3 -765 -7z"/>
</g>
</svg>
