<?xml version="1.0" standalone="no"?>
<!DOCTYPE svg PUBLIC "-//W3C//DTD SVG 20010904//EN"
 "http://www.w3.org/TR/2001/REC-SVG-20010904/DTD/svg10.dtd">
<svg version="1.0" xmlns="http://www.w3.org/2000/svg"
 width="188.000000pt" height="188.000000pt" viewBox="0 0 188.000000 188.000000"
 preserveAspectRatio="xMidYMid meet">
<metadata>
Created by potrace 1.14, written by Peter Selinger 2001-2017
</metadata>
<g transform="translate(0.000000,188.000000) scale(0.100000,-0.100000)"
fill="#000000" stroke="none">
<path d="M390 930 l0 -352 173 4 c162 3 175 5 228 29 72 34 134 96 167 168 23
48 27 69 27 151 0 82 -4 103 -27 151 -33 72 -95 134 -167 168 -53 24 -66 26
-228 29 l-173 4 0 -352z m324 248 c56 -17 141 -100 155 -153 6 -22 11 -65 11
-95 0 -89 -16 -129 -73 -185 -63 -61 -104 -75 -221 -75 l-86 0 0 260 0 260 86
0 c48 0 105 -6 128 -12z"/>
<path d="M1185 1260 c-22 -11 -51 -36 -65 -57 l-25 -36 -3 -294 -3 -293 51 0
50 0 0 145 0 145 150 0 150 0 0 45 0 45 -151 0 -151 0 4 91 c4 85 6 94 32 115
26 23 34 24 167 24 l139 0 0 45 0 45 -152 0 c-133 0 -158 -3 -193 -20z"/>
</g>
</svg>
